<svg xmlns="http://www.w3.org/2000/svg" xmlns:xlink="http://www.w3.org/1999/xlink" viewBox="0 0 114 111.85"><defs><style>.cls-1{isolation:isolate;}.cls-2{mix-blend-mode:multiply;fill:url(#radial-gradient);}.cls-3{fill:url(#linear-gradient);}.cls-4{fill:url(#linear-gradient-2);}.cls-5,.cls-6{fill:#231f20;}.cls-5{opacity:0.3;}.cls-5,.cls-6,.cls-8{mix-blend-mode:overlay;}.cls-6{opacity:0.6;}.cls-7{fill:#fff;}.cls-8{opacity:0.4;}.cls-9{fill:#3e3f40;}</style><radialGradient id="radial-gradient" cx="-289.72" cy="5786.33" r="42.48" gradientTransform="translate(445.78 -934.42) scale(1.34 0.18)" gradientUnits="userSpaceOnUse"><stop offset="0" stop-color="#e2e5e2"/><stop offset="0.2" stop-color="#eff1ee"/><stop offset="0.29" stop-color="#f6f7f5"/><stop offset="0.31" stop-color="#f6f7f5" stop-opacity="0.96"/><stop offset="0.46" stop-color="#f6f7f5" stop-opacity="0.67"/><stop offset="0.6" stop-color="#f6f7f5" stop-opacity="0.43"/><stop offset="0.73" stop-color="#f6f7f5" stop-opacity="0.25"/><stop offset="0.84" stop-color="#f6f7f5" stop-opacity="0.11"/><stop offset="0.94" stop-color="#f6f7f5" stop-opacity="0.03"/><stop offset="1" stop-color="#f6f7f5" stop-opacity="0"/></radialGradient><linearGradient id="linear-gradient" x1="1.74" y1="98.53" x2="102.74" y2="-8.97" gradientUnits="userSpaceOnUse"><stop offset="0" stop-color="#b1b7c2"/><stop offset="1" stop-color="#fff"/></linearGradient><linearGradient id="linear-gradient-2" x1="-7.26" y1="100.53" x2="77.07" y2="17.08" gradientUnits="userSpaceOnUse"><stop offset="0" stop-color="#1c1d1f"/><stop offset="1" stop-color="#595959"/></linearGradient></defs><title>Asset 3</title><g class="cls-1"><g id="Layer_2" data-name="Layer 2"><g id="Layer_1-2" data-name="Layer 1"><ellipse class="cls-2" cx="57" cy="104.23" rx="57" ry="7.62"/><path class="cls-3" d="M32.47,2C42-8.48,96.85,25,99.39,47.88s-54.68,59-71.09,43.63C14.05,78.13,6.57,30.35,32.47,2Z"/><path class="cls-4" d="M53,92.69C39.23,95.09,1.08,48.45,7.33,29.27S56.82,2,84.07,18.38C113.32,36,76.25,88.64,53,92.69Z"/><path class="cls-5" d="M75.31,26.94c15.4,6.64,6.6,42.11-4.62,50.89C58.87,87.08,19.8,83,18.18,48.44,17.45,32.76,41.91,12.53,75.31,26.94Z"/><path class="cls-6" d="M75.31,25.36c15.4,6.64,6.6,42.11-4.62,50.89C58.87,85.5,19.8,81.39,18.18,46.86,17.45,31.18,41.91,10.95,75.31,25.36Z"/><path class="cls-7" d="M75.31,23.44c15.4,6.64,6.6,42.1-4.62,50.89-11.82,9.25-50.89,5.14-52.5-29.39C17.45,29.26,41.91,9,75.31,23.44Z"/><path class="cls-7" d="M75.31,22.44c15.4,6.64,6.6,42.11-4.62,50.89-11.82,9.25-50.89,5.14-52.5-29.39C17.45,28.26,41.91,8,75.31,22.44Z"/><g class="cls-8"><path class="cls-7" d="M55,77.72A40.4,40.4,0,0,1,31,70c-8-6-12.46-15-13-26.09-.24-5.09,2.19-10.71,6.68-15.4C31.5,21.45,41.79,17.38,53,17.38a56.56,56.56,0,0,1,22.39,4.94c4.43,1.91,7.22,6.39,8.07,12.95,1.67,12.94-4.6,31.84-12.67,38.15C67.28,76.15,61.53,77.72,55,77.72ZM53,17.63c-11.11,0-21.33,4-28.05,11.08-4.43,4.65-6.84,10.19-6.61,15.22C19.39,67.1,37.51,77.47,55,77.47c6.49,0,12.19-1.54,15.63-4.24,8-6.27,14.23-25.05,12.57-37.92-.83-6.47-3.57-10.88-7.92-12.75A56.32,56.32,0,0,0,53,17.63Z"/></g><path class="cls-9" d="M35.81,41.93h.44v5.46h3.44v.4H35.81Z"/><path class="cls-9" d="M40.4,44.88v0a2.95,2.95,0,1,1,5.9,0v0a2.95,2.95,0,1,1-5.9,0Zm5.45,0v0a2.54,2.54,0,0,0-2.5-2.64,2.51,2.51,0,0,0-2.49,2.62v0a2.54,2.54,0,0,0,2.5,2.64A2.51,2.51,0,0,0,45.84,44.88Z"/><path class="cls-9" d="M47.78,41.93h2.46a2.31,2.31,0,0,1,1.65.58,1.55,1.55,0,0,1,.44,1.09v0c0,1-.73,1.54-1.72,1.68l1.94,2.5H52l-1.87-2.43H48.21v2.43h-.44Zm2.41,3c1,0,1.71-.49,1.71-1.34v0c0-.79-.62-1.28-1.68-1.28h-2V45Z"/><path class="cls-9" d="M53.84,41.93H58v.4H54.27v2.3h3.36V45H54.27v2.35H58v.4H53.84Z"/><path class="cls-9" d="M59.45,41.93h.41l2.35,3.47,2.35-3.47H65v5.86h-.44V42.7l-2.32,3.38h0L59.87,42.7v5.09h-.42Z"/><path class="cls-9" d="M37.68,48.93H39v5.86H37.68Z"/><path class="cls-9" d="M40.44,48.93h2.4a2,2,0,0,1,2.25,2v0A2.1,2.1,0,0,1,42.71,53h-1v1.76H40.44Zm2.31,3a.91.91,0,0,0,1-.89v0c0-.58-.4-.89-1-.89h-1v1.79Z"/><path class="cls-9" d="M45.63,53.94l.76-.91a2.69,2.69,0,0,0,1.75.71c.53,0,.85-.21.85-.55v0c0-.33-.2-.49-1.18-.75-1.18-.3-1.94-.63-1.94-1.79v0a1.83,1.83,0,0,1,2.05-1.77,3.39,3.39,0,0,1,2.18.75l-.67,1A2.75,2.75,0,0,0,47.9,50c-.49,0-.75.23-.75.51v0c0,.39.25.51,1.27.77,1.19.31,1.86.74,1.86,1.76v0c0,1.16-.89,1.82-2.15,1.82A3.73,3.73,0,0,1,45.63,53.94Z"/><path class="cls-9" d="M51.3,52.28V48.93h1.29v3.32c0,1,.48,1.45,1.27,1.45s1.27-.48,1.27-1.41V48.93h1.29v3.31a2.36,2.36,0,0,1-2.57,2.65A2.33,2.33,0,0,1,51.3,52.28Z"/><path class="cls-9" d="M57.73,48.93h1.39l1.54,2.48,1.54-2.48h1.39v5.86H62.31V51l-1.65,2.5h0L59,51v3.8H57.73Z"/></g></g></g></svg>