<svg xmlns="http://www.w3.org/2000/svg" viewBox="0 0 220.05 433.04"><defs><style>.cls-1{fill:#fff;}</style></defs><title>menuLogo</title><g id="Layer_2" data-name="Layer 2"><g id="Layer_1-2" data-name="Layer 1"><path class="cls-1" d="M166.81,269.77,217.55,219l2.5-2.5-2.5-2.5-48.24-48.25-3.54-3.54V55.74l-2.5-2.5L110,0,0,110l53.2,53.21c-4.17,4-14.72,14-25.11,24.15C1,213.73.32,215.29,1,217.18V324L110,433,217.55,325.51l2.5-2.5-2.5-2.5ZM7.07,110l103-103,49.71,49.71L106.49,110l50.75,50.75H57.81Zm150.17,55.75L110,213,62.81,165.77ZM110,426,6,322V216.88C9.72,212,38,184.6,56.73,166.76L109,219H210.48L104,325.51H210.48Z"/></g></g></svg>